<?xml version="1.0" encoding="utf-8"?>
<!-- Generator: Adobe Illustrator 25.2.1, SVG Export Plug-In . SVG Version: 6.00 Build 0)  -->
<svg version="1.1" id="Layer_1" xmlns="http://www.w3.org/2000/svg" xmlns:xlink="http://www.w3.org/1999/xlink" x="0px" y="0px"
	 viewBox="0 0 376.8 378.6" style="enable-background:new 0 0 376.8 378.6;" xml:space="preserve">
<style type="text/css">
	.st0{fill:#BABABA;}
</style>
<g>
	<g>
		<g>
			<path class="st0" d="M207.7,189.3L359.1,38c5.4-5.4,5.4-14,0-19.3c-5.4-5.3-14-5.4-19.3,0L188.4,170L37,18.7
				c-5.4-5.4-14-5.4-19.3,0s-5.4,14,0,19.3l151.3,151.3L17.8,340.6c-5.4,5.4-5.4,14,0,19.3c2.7,2.7,6.2,4,9.7,4s7-1.3,9.7-4
				l151.3-151.3l151.3,151.3c2.7,2.7,6.2,4,9.7,4s7-1.3,9.7-4c5.4-5.4,5.4-14,0-19.3L207.7,189.3z"/>
		</g>
	</g>
</g>
</svg>
